<svg xmlns="http://www.w3.org/2000/svg" xmlns:xlink="http://www.w3.org/1999/xlink" width="500" zoomAndPan="magnify" viewBox="0 0 375 374.999991" height="500" preserveAspectRatio="xMidYMid meet" version="1.0"><defs><g/></defs><g fill="#000000" fill-opacity="1"><g transform="translate(-1.338364, 220.797865)"><g><path d="M 23.832031 -8.976562 C 20.351562 -8.789062 16.875 -8.648438 13.394531 -8.507812 C 17.863281 -13.492188 22.890625 -18.050781 26.558594 -23.691406 C 28.15625 -26.085938 26.039062 -28.8125 23.550781 -29.003906 C 18.894531 -29.332031 14.289062 -29.519531 9.683594 -29.519531 C 5.125 -29.519531 5.125 -22.46875 9.683594 -22.46875 C 12.035156 -22.46875 14.429688 -22.421875 16.78125 -22.328125 C 12.222656 -16.96875 6.863281 -12.269531 2.820312 -6.394531 C 1.363281 -4.230469 3.335938 -0.988281 5.875 -1.128906 C 11.84375 -1.363281 17.863281 -1.644531 23.832031 -1.925781 C 28.34375 -2.113281 28.34375 -9.164062 23.832031 -8.976562 Z M 23.832031 -8.976562 "/></g></g></g><g fill="#000000" fill-opacity="1"><g transform="translate(28.274172, 220.797865)"><g><path d="M 20.871094 -11.328125 C 16.265625 -10.011719 8.226562 -9.589844 9.496094 -16.734375 C 10.339844 -21.574219 14.855469 -25.476562 19.789062 -25.101562 C 24.300781 -24.726562 24.300781 -31.777344 19.789062 -32.152344 C 10.8125 -32.855469 2.773438 -24.726562 2.351562 -15.933594 C 2.113281 -11.46875 4.230469 -7.332031 8.179688 -5.078125 C 12.691406 -2.539062 18.003906 -3.195312 22.75 -4.511719 C 27.121094 -5.78125 25.289062 -12.550781 20.871094 -11.328125 Z M 20.871094 -11.328125 "/></g></g></g><g fill="#000000" fill-opacity="1"><g transform="translate(55.91254, 220.797865)"><g><path d="M 24.300781 -20.589844 C 24.160156 -24.675781 24.066406 -35.394531 17.109375 -32.433594 C 12.597656 -30.507812 9.164062 -24.628906 7.238281 -20.398438 C 4.699219 -14.664062 3.476562 -8.601562 2.398438 -2.492188 C 1.597656 1.972656 8.367188 3.855469 9.164062 -0.609375 C 9.589844 -2.960938 10.011719 -5.359375 10.527344 -7.707031 L 17.578125 -7.425781 C 17.675781 -5.546875 17.722656 -3.667969 17.769531 -1.832031 C 17.863281 2.726562 24.914062 2.726562 24.773438 -1.832031 C 24.628906 -8.085938 24.535156 -14.335938 24.300781 -20.589844 Z M 12.785156 -15.464844 C 13.585938 -17.53125 14.617188 -19.601562 15.839844 -21.433594 C 16.265625 -22.09375 16.734375 -22.703125 17.203125 -23.265625 C 17.25 -22.328125 17.203125 -21.386719 17.25 -20.589844 C 17.34375 -18.566406 17.390625 -16.546875 17.4375 -14.476562 C 15.792969 -14.523438 14.148438 -14.617188 12.503906 -14.664062 C 12.597656 -14.949219 12.691406 -15.183594 12.785156 -15.464844 Z M 12.785156 -15.464844 "/></g></g></g><g fill="#000000" fill-opacity="1"><g transform="translate(83.080873, 220.797865)"><g><path d="M 17.484375 -20.351562 C 16.265625 -21.199219 13.445312 -21.953125 12.878906 -23.410156 C 12.035156 -25.710938 15.183594 -27.355469 16.78125 -28.109375 C 20.871094 -30.035156 17.296875 -36.101562 13.207031 -34.171875 C 6.910156 -31.210938 2.539062 -22.84375 8.835938 -17.390625 C 11.046875 -15.464844 15.417969 -14.710938 15.886719 -11.234375 C 16.074219 -9.777344 15.371094 -8.414062 14.054688 -7.851562 C 13.160156 -7.472656 9.871094 -6.957031 9.117188 -7.992188 C 6.394531 -11.5625 0.28125 -8.039062 3.007812 -4.417969 C 8.554688 2.914062 21.808594 -0.1875 22.84375 -9.589844 C 23.316406 -13.914062 21.058594 -18.003906 17.484375 -20.351562 Z M 17.484375 -20.351562 "/></g></g></g><g fill="#000000" fill-opacity="1"><g transform="translate(108.369047, 220.797865)"><g/></g></g><g fill="#000000" fill-opacity="1"><g transform="translate(122.658276, 220.797865)"><g><path d="M 27.449219 -26.746094 C 26.886719 -31.164062 19.835938 -31.210938 20.398438 -26.746094 C 21.058594 -21.574219 20.304688 -12.972656 14.804688 -10.339844 C 8.882812 -7.519531 9.308594 -24.394531 9.496094 -27.214844 C 9.824219 -31.726562 2.773438 -31.679688 2.445312 -27.214844 C 1.878906 -19.273438 2.726562 -0.988281 15.089844 -3.101562 C 25.101562 -4.792969 28.53125 -18.285156 27.449219 -26.746094 Z M 27.449219 -26.746094 "/></g></g></g><g fill="#000000" fill-opacity="1"><g transform="translate(152.64685, 220.797865)"><g><path d="M 20.683594 -28.53125 C 19.929688 -23.457031 19.035156 -18.378906 18.097656 -13.347656 L 13.914062 -22.9375 C 12.691406 -25.804688 8.226562 -24.773438 7.472656 -22.09375 C 5.5 -14.757812 3.808594 -7.332031 2.398438 0.09375 C 1.550781 4.558594 8.367188 6.441406 9.214844 1.972656 C 9.964844 -2.113281 10.859375 -6.203125 11.796875 -10.292969 C 13.300781 -6.863281 14.757812 -3.476562 16.265625 -0.046875 C 17.484375 2.773438 22.09375 1.925781 22.703125 -0.894531 C 24.582031 -9.402344 26.183594 -18.003906 27.449219 -26.652344 C 28.109375 -31.070312 21.292969 -32.996094 20.683594 -28.53125 Z M 20.683594 -28.53125 "/></g></g></g><g fill="#000000" fill-opacity="1"><g transform="translate(182.541413, 220.797865)"><g><path d="M 4.464844 -28.957031 C 3.523438 -20.496094 2.820312 -11.984375 2.351562 -3.476562 C 2.066406 1.082031 9.117188 1.035156 9.402344 -3.476562 C 9.871094 -11.984375 10.574219 -20.496094 11.515625 -28.957031 C 11.984375 -33.46875 4.933594 -33.46875 4.464844 -28.957031 Z M 4.464844 -28.957031 "/></g></g></g><g fill="#000000" fill-opacity="1"><g transform="translate(196.454606, 220.797865)"><g><path d="M 20.589844 -24.960938 C 18.707031 -19.976562 16.640625 -15.136719 14.476562 -10.292969 C 12.316406 -15.652344 11 -21.527344 9.308594 -26.886719 C 7.945312 -31.164062 1.128906 -29.332031 2.492188 -25.007812 C 5.078125 -16.875 6.910156 -7.753906 11.515625 -0.515625 C 12.832031 1.597656 16.359375 1.972656 17.578125 -0.515625 C 21.199219 -7.851562 24.488281 -15.371094 27.355469 -23.078125 C 28.957031 -27.308594 22.1875 -29.144531 20.589844 -24.960938 Z M 20.589844 -24.960938 "/></g></g></g><g fill="#000000" fill-opacity="1"><g transform="translate(226.443179, 220.797865)"><g><path d="M 19.601562 -9.964844 C 16.359375 -10.105469 13.113281 -9.964844 9.917969 -9.683594 C 10.152344 -11.46875 10.433594 -13.253906 10.671875 -15.042969 C 12.269531 -15.042969 13.867188 -14.996094 15.464844 -14.804688 C 17.390625 -14.617188 18.988281 -16.546875 18.988281 -18.332031 C 18.988281 -20.398438 17.390625 -21.667969 15.464844 -21.855469 C 14.242188 -22 13.019531 -22.046875 11.75 -22.09375 C 12.035156 -23.878906 12.363281 -25.710938 12.644531 -27.546875 C 15.042969 -27.546875 17.390625 -27.449219 19.789062 -27.308594 C 24.300781 -26.980469 24.300781 -34.03125 19.789062 -34.359375 C 16.40625 -34.597656 12.972656 -34.644531 9.589844 -34.5 C 8.273438 -34.5 7.332031 -33.84375 6.769531 -32.949219 C 6.535156 -32.574219 6.34375 -32.105469 6.25 -31.585938 C 4.699219 -22.9375 3.429688 -14.289062 2.351562 -5.640625 C 2.019531 -3.101562 4.839844 -1.925781 6.816406 -2.210938 C 11.046875 -2.914062 15.324219 -3.101562 19.601562 -2.914062 C 24.113281 -2.726562 24.113281 -9.777344 19.601562 -9.964844 Z M 19.601562 -9.964844 "/></g></g></g><g fill="#000000" fill-opacity="1"><g transform="translate(251.966376, 220.797865)"><g><path d="M 26.699219 -4.464844 C 24.113281 -7.992188 21.152344 -11.140625 17.769531 -13.867188 C 20.304688 -15.652344 22.421875 -18.144531 23.316406 -20.824219 C 25.101562 -26.183594 20.304688 -31.445312 14.855469 -31.210938 C 9.070312 -30.929688 5.265625 -25.570312 4.230469 -20.351562 C 2.867188 -13.585938 2.867188 -6.394531 2.351562 0.46875 C 1.972656 4.984375 9.023438 4.984375 9.402344 0.46875 C 9.683594 -3.242188 9.964844 -6.957031 10.292969 -10.671875 C 14.289062 -8.039062 17.769531 -4.792969 20.636719 -0.894531 C 23.265625 2.726562 29.425781 -0.800781 26.699219 -4.464844 Z M 16.640625 -23.265625 C 16.828125 -22.515625 14.710938 -20.636719 14.148438 -20.117188 C 13.160156 -19.226562 12.222656 -18.566406 11 -18.425781 C 11.140625 -19.226562 11.328125 -20.023438 11.65625 -20.777344 C 11.984375 -21.667969 15.980469 -26.464844 16.640625 -23.265625 Z M 16.640625 -23.265625 "/></g></g></g><g fill="#000000" fill-opacity="1"><g transform="translate(281.719938, 220.797865)"><g><path d="M 17.484375 -20.351562 C 16.265625 -21.199219 13.445312 -21.953125 12.878906 -23.410156 C 12.035156 -25.710938 15.183594 -27.355469 16.78125 -28.109375 C 20.871094 -30.035156 17.296875 -36.101562 13.207031 -34.171875 C 6.910156 -31.210938 2.539062 -22.84375 8.835938 -17.390625 C 11.046875 -15.464844 15.417969 -14.710938 15.886719 -11.234375 C 16.074219 -9.777344 15.371094 -8.414062 14.054688 -7.851562 C 13.160156 -7.472656 9.871094 -6.957031 9.117188 -7.992188 C 6.394531 -11.5625 0.28125 -8.039062 3.007812 -4.417969 C 8.554688 2.914062 21.808594 -0.1875 22.84375 -9.589844 C 23.316406 -13.914062 21.058594 -18.003906 17.484375 -20.351562 Z M 17.484375 -20.351562 "/></g></g></g><g fill="#000000" fill-opacity="1"><g transform="translate(307.0081, 220.797865)"><g><path d="M 4.464844 -28.957031 C 3.523438 -20.496094 2.820312 -11.984375 2.351562 -3.476562 C 2.066406 1.082031 9.117188 1.035156 9.402344 -3.476562 C 9.871094 -11.984375 10.574219 -20.496094 11.515625 -28.957031 C 11.984375 -33.46875 4.933594 -33.46875 4.464844 -28.957031 Z M 4.464844 -28.957031 "/></g></g></g><g fill="#000000" fill-opacity="1"><g transform="translate(320.921293, 220.797865)"><g><path d="M 21.386719 -32.339844 C 16.167969 -32.996094 10.953125 -33.089844 5.6875 -32.574219 C 1.222656 -32.105469 1.175781 -25.054688 5.6875 -25.523438 C 7.097656 -25.664062 8.460938 -25.757812 9.824219 -25.804688 C 9.402344 -18.941406 9.023438 -12.035156 8.601562 -5.171875 C 8.320312 -0.65625 15.371094 -0.65625 15.652344 -5.171875 C 16.074219 -12.035156 16.453125 -18.847656 16.875 -25.710938 C 18.378906 -25.617188 19.882812 -25.476562 21.386719 -25.289062 C 25.898438 -24.726562 25.851562 -31.777344 21.386719 -32.339844 Z M 21.386719 -32.339844 "/></g></g></g><g fill="#000000" fill-opacity="1"><g transform="translate(348.042622, 220.797865)"><g><path d="M 18.941406 -30.316406 C 18.613281 -27.59375 18.285156 -24.820312 17.910156 -22.09375 C 16.78125 -19.835938 13.300781 -16.167969 10.671875 -17.910156 C 8.039062 -19.648438 9.589844 -25.476562 10.527344 -27.640625 C 12.363281 -31.824219 5.96875 -34.785156 4.136719 -30.601562 C 1.597656 -24.726562 0.894531 -14.996094 7.707031 -11.515625 C 10.246094 -10.199219 12.972656 -10.246094 15.558594 -11.140625 C 14.710938 -9.070312 13.394531 -7.285156 11.28125 -6.34375 C 7.191406 -4.464844 9.636719 2.113281 13.820312 0.234375 C 24.675781 -4.652344 24.582031 -18.941406 25.898438 -29.097656 C 26.464844 -33.609375 19.554688 -34.832031 18.941406 -30.316406 Z M 18.941406 -30.316406 "/></g></g></g><g fill="#000000" fill-opacity="1"><g transform="translate(91.724823, 269.745066)"><g><path d="M 10.5 0 L 2.96875 0 L 2.96875 -29.625 L 10.5 -29.625 Z M 10.5 0 "/></g></g></g><g fill="#000000" fill-opacity="1"><g transform="translate(119.493691, 269.745066)"><g><path d="M 2.96875 -29.625 L 15.703125 -29.625 C 20.359375 -29.625 24.144531 -28.253906 27.0625 -25.515625 C 29.988281 -22.785156 31.453125 -19.21875 31.453125 -14.8125 C 31.453125 -10.4375 29.96875 -6.875 27 -4.125 C 24.039062 -1.375 20.175781 0 15.40625 0 L 2.96875 0 Z M 10.5 -23.625 L 10.5 -6.015625 L 15.875 -6.015625 C 18.1875 -6.015625 20.082031 -6.820312 21.5625 -8.4375 C 23.039062 -10.0625 23.78125 -12.171875 23.78125 -14.765625 C 23.78125 -17.367188 23.003906 -19.492188 21.453125 -21.140625 C 19.898438 -22.796875 17.925781 -23.625 15.53125 -23.625 Z M 10.5 -23.625 "/></g></g></g><g fill="#000000" fill-opacity="1"><g transform="translate(166.268031, 269.745066)"><g><path d="M 26.15625 -23.703125 L 10.5 -23.703125 L 10.5 -17.8125 L 24.640625 -17.8125 L 24.640625 -11.890625 L 10.5 -11.890625 L 10.5 -5.921875 L 26.625 -5.921875 L 26.625 0 L 2.96875 0 L 2.96875 -29.625 L 26.15625 -29.625 Z M 26.15625 -23.703125 "/></g></g></g><g fill="#000000" fill-opacity="1"><g transform="translate(209.105829, 269.745066)"><g><path d="M 22.640625 -5.453125 L 9.6875 -5.453125 L 7.53125 0 L -0.21875 0 L 12.578125 -29.625 L 20.3125 -29.625 L 32.796875 0 L 24.765625 0 Z M 20.4375 -11.171875 L 16.21875 -22.140625 L 11.890625 -11.171875 Z M 20.4375 -11.171875 "/></g></g></g><g fill="#000000" fill-opacity="1"><g transform="translate(256.007157, 269.745066)"><g><path d="M 14.34375 -29.96875 C 18.78125 -29.96875 22.675781 -28.867188 26.03125 -26.671875 L 23.203125 -20.78125 C 21.648438 -21.6875 19.984375 -22.425781 18.203125 -23 C 16.421875 -23.582031 14.925781 -23.875 13.71875 -23.875 C 11.539062 -23.875 10.453125 -23.15625 10.453125 -21.71875 C 10.453125 -20.78125 10.988281 -20.03125 12.0625 -19.46875 C 13.132812 -18.90625 14.4375 -18.414062 15.96875 -18 C 17.507812 -17.59375 19.050781 -17.097656 20.59375 -16.515625 C 22.132812 -15.941406 23.4375 -15.003906 24.5 -13.703125 C 25.570312 -12.410156 26.109375 -10.773438 26.109375 -8.796875 C 26.109375 -5.953125 24.992188 -3.734375 22.765625 -2.140625 C 20.535156 -0.546875 17.703125 0.25 14.265625 0.25 C 11.804688 0.25 9.378906 -0.171875 6.984375 -1.015625 C 4.585938 -1.859375 2.5 -3.015625 0.71875 -4.484375 L 3.640625 -10.28125 C 5.140625 -8.988281 6.90625 -7.925781 8.9375 -7.09375 C 10.96875 -6.257812 12.769531 -5.84375 14.34375 -5.84375 C 15.5625 -5.84375 16.507812 -6.0625 17.1875 -6.5 C 17.863281 -6.9375 18.203125 -7.578125 18.203125 -8.421875 C 18.203125 -9.242188 17.8125 -9.925781 17.03125 -10.46875 C 16.257812 -11.019531 15.296875 -11.429688 14.140625 -11.703125 C 12.984375 -11.972656 11.726562 -12.332031 10.375 -12.78125 C 9.019531 -13.226562 7.765625 -13.71875 6.609375 -14.25 C 5.453125 -14.789062 4.484375 -15.644531 3.703125 -16.8125 C 2.929688 -17.988281 2.546875 -19.394531 2.546875 -21.03125 C 2.546875 -23.738281 3.625 -25.90625 5.78125 -27.53125 C 7.9375 -29.15625 10.789062 -29.96875 14.34375 -29.96875 Z M 14.34375 -29.96875 "/></g></g></g><path fill="#ffd013" d="M 172.472656 60.761719 C 183.273438 55.949219 220.328125 66.617188 227.910156 79.480469 C 235.496094 92.34375 236.085938 101.136719 231.414062 114.015625 C 226.742188 126.898438 215.128906 136.25 203.433594 137.996094 C 191.738281 139.746094 174.808594 143.257812 164.296875 130.394531 C 153.785156 117.53125 149.707031 116.34375 149.128906 111.082031 C 148.554688 105.820312 145.625 89.441406 153.210938 77.730469 C 160.792969 66.023438 161.960938 65.445312 172.472656 60.761719 Z M 172.472656 60.761719 " fill-opacity="1" fill-rule="nonzero"/><path fill="#000000" d="M 227.15625 92.417969 C 225.648438 86.085938 221.15625 80.578125 215.609375 77.253906 C 208.585938 73.050781 200.113281 71.972656 192.039062 72.339844 C 185.097656 72.652344 178.191406 73.902344 171.792969 76.65625 C 160.078125 81.710938 151.089844 92.757812 152.058594 105.992188 C 152.3125 109.339844 153.222656 112.636719 154.957031 115.503906 C 157.003906 118.855469 159.933594 121.265625 163.089844 123.511719 C 169.261719 127.855469 177.25 134.785156 174.976562 142.992188 C 174.664062 142.933594 174.351562 142.875 174.007812 142.820312 C 171.761719 142.421875 170.996094 146.339844 173.269531 146.824219 C 179.867188 148.214844 186.664062 148.839844 193.402344 148.300781 C 194.539062 148.214844 195.960938 147.449219 195.847656 146.058594 C 195.222656 138.589844 197.894531 131.09375 203.523438 126.039062 C 206.480469 123.398438 209.953125 121.4375 213.222656 119.195312 C 216.234375 117.121094 218.992188 114.820312 221.355469 112.039062 C 226.074219 106.671875 228.832031 99.542969 227.15625 92.417969 Z M 217.488281 109.484375 C 212 115.617188 203.867188 118.429688 198.40625 124.5625 C 193.628906 129.929688 191.183594 136.773438 191.183594 143.84375 C 186.238281 144.125 181.347656 143.957031 176.425781 143.246094 C 178.191406 138.363281 176.824219 132.851562 173.925781 128.507812 C 171.933594 125.527344 169.289062 123.226562 166.503906 121.011719 C 163.800781 118.882812 160.902344 116.78125 159.109375 113.742188 C 152.996094 103.433594 158.65625 90.371094 167.8125 84.097656 C 173.15625 80.433594 179.527344 78.503906 185.867188 77.539062 C 193.175781 76.429688 201.078125 76.429688 208.160156 78.84375 C 214.214844 80.917969 219.734375 85.234375 222.035156 91.367188 C 224.453125 97.839844 221.921875 104.542969 217.488281 109.484375 Z M 217.488281 109.484375 " fill-opacity="1" fill-rule="nonzero"/><path fill="#000000" d="M 194.683594 113.515625 C 192.152344 113.144531 190.816406 115.21875 189.933594 117.234375 C 189.90625 117.207031 189.90625 117.207031 189.875 117.179688 C 192.121094 113.0625 193.460938 107.355469 190.386719 103.605469 C 189.792969 102.867188 188.710938 102.925781 188.027344 103.464844 C 186.039062 105.023438 185.726562 107.664062 185.496094 110.050781 C 185.269531 112.265625 185.328125 114.566406 186.179688 116.609375 C 185.894531 117.035156 185.609375 117.433594 185.269531 117.804688 C 184.359375 114.226562 181.972656 110.503906 177.847656 112.351562 C 174.09375 114.054688 173.695312 119.5625 176.882812 121.976562 C 178.617188 123.285156 180.550781 123.597656 182.425781 123.226562 C 182.625 128.253906 181.828125 133.082031 180.71875 137.964844 C 180.4375 139.15625 182 139.640625 182.511719 138.53125 C 182.570312 138.417969 182.597656 138.332031 182.652344 138.21875 C 182.996094 139.527344 185.183594 139.953125 185.640625 138.332031 C 186.636719 134.671875 187.742188 131.035156 188.9375 127.429688 C 189.507812 125.753906 190.074219 124.078125 190.671875 122.402344 C 190.84375 121.921875 191.015625 121.410156 191.183594 120.898438 C 191.582031 120.957031 191.980469 120.984375 192.40625 120.957031 C 194.425781 120.8125 196.417969 119.5625 197.011719 117.574219 C 197.554688 115.84375 196.671875 113.800781 194.683594 113.515625 Z M 188.683594 108.433594 C 188.796875 109.539062 188.652344 110.703125 188.339844 111.839844 C 188.371094 111.5 188.371094 111.160156 188.425781 110.816406 C 188.484375 110.136719 188.511719 109.257812 188.683594 108.433594 Z M 178.703125 117.207031 C 179.097656 115.671875 180.292969 115.589844 181.148438 116.894531 C 181.6875 117.71875 181.972656 118.683594 182.171875 119.675781 C 181.972656 119.707031 181.742188 119.734375 181.515625 119.734375 C 180.007812 119.820312 178.246094 118.96875 178.703125 117.207031 Z M 185.183594 129.671875 C 185.609375 127.089844 185.78125 124.449219 185.753906 121.890625 C 186.71875 121.265625 187.601562 120.472656 188.3125 119.59375 C 188.453125 119.734375 188.625 119.847656 188.765625 119.960938 C 187.488281 123.140625 186.292969 126.40625 185.183594 129.671875 Z M 194.3125 117.148438 C 194.027344 117.859375 192.949219 118.257812 192.179688 118.257812 C 192.351562 117.886719 192.519531 117.546875 192.691406 117.207031 C 192.890625 116.722656 193.203125 116.328125 193.660156 116.015625 C 194.539062 116.128906 194.765625 116.496094 194.3125 117.148438 Z M 194.3125 117.148438 " fill-opacity="1" fill-rule="nonzero"/><path fill="#000000" d="M 192.464844 151.992188 C 190.957031 151.367188 189.195312 151.421875 187.574219 151.339844 C 185.78125 151.253906 183.992188 151.226562 182.199219 151.308594 C 179.015625 151.453125 175.488281 151.507812 172.503906 152.644531 C 170.9375 153.242188 171.820312 155.285156 173.101562 155.484375 C 176.226562 155.9375 179.527344 155.570312 182.710938 155.796875 C 184.246094 155.910156 185.808594 156.023438 187.34375 156.222656 C 188.996094 156.421875 190.558594 156.820312 192.238281 156.59375 C 194.796875 156.25 194.425781 152.816406 192.464844 151.992188 Z M 192.464844 151.992188 " fill-opacity="1" fill-rule="nonzero"/><path fill="#000000" d="M 188.140625 158.976562 C 186.066406 157.925781 183.109375 158.351562 180.863281 158.351562 C 178.191406 158.351562 175.574219 158.550781 172.929688 158.921875 C 171.308594 159.148438 171.820312 161.277344 173.15625 161.53125 C 175.0625 161.875 176.9375 162.1875 178.84375 162.46875 C 178.21875 163.519531 177.90625 164.742188 178.105469 165.847656 C 178.871094 169.996094 184.046875 171.640625 187.402344 169.425781 C 190.617188 167.242188 192.320312 161.050781 188.140625 158.976562 Z M 183.480469 164.941406 C 182.484375 164.796875 183.621094 163.976562 184.246094 163.804688 C 184.644531 163.691406 184.929688 163.492188 185.15625 163.238281 C 185.242188 163.238281 185.296875 163.207031 185.269531 163.179688 C 185.726562 164.171875 184.1875 165.054688 183.480469 164.941406 Z M 183.480469 164.941406 " fill-opacity="1" fill-rule="nonzero"/><path fill="#000000" d="M 173.300781 64.363281 C 173.695312 66.492188 176.851562 66.152344 176.996094 64.050781 C 177.308594 59.902344 176.539062 55.53125 176.226562 51.386719 C 175.914062 47.296875 175.746094 43.179688 175.175781 39.117188 C 174.949219 37.5 172.359375 37.726562 172.332031 39.347656 C 172.21875 43.546875 172.53125 47.777344 172.671875 51.980469 C 172.816406 56.042969 172.558594 60.359375 173.300781 64.363281 Z M 173.300781 64.363281 " fill-opacity="1" fill-rule="nonzero"/><path fill="#000000" d="M 144.976562 80.007812 C 143.101562 78.957031 141.28125 77.851562 139.488281 76.65625 C 135.964844 74.328125 132.609375 71.71875 129.453125 68.90625 C 127.71875 67.34375 124.929688 69.699219 126.664062 71.375 C 129.878906 74.472656 133.261719 77.339844 136.902344 79.894531 C 138.636719 81.144531 140.429688 82.308594 142.277344 83.414062 C 144.152344 84.550781 146.171875 86.058594 148.390625 86.226562 C 150.066406 86.367188 150.976562 84.238281 149.898438 83.046875 C 148.644531 81.628906 146.625 80.945312 144.976562 80.007812 Z M 144.976562 80.007812 " fill-opacity="1" fill-rule="nonzero"/><path fill="#000000" d="M 142.050781 107.863281 C 144.066406 107.296875 143.925781 104.285156 141.734375 104.171875 C 137.554688 103.917969 133.035156 105.195312 128.996094 106.246094 C 126.976562 106.785156 125.015625 107.355469 123.054688 108.035156 C 121.0625 108.714844 118.929688 109.3125 117.226562 110.5625 C 115.832031 111.585938 117.226562 113.402344 118.589844 113.230469 C 120.496094 113.003906 122.34375 112.152344 124.191406 111.585938 C 126.183594 110.988281 128.171875 110.449219 130.191406 109.996094 C 134.058594 109.113281 138.183594 108.945312 142.050781 107.863281 Z M 142.050781 107.863281 " fill-opacity="1" fill-rule="nonzero"/><path fill="#000000" d="M 213.191406 66.351562 C 216.777344 60.046875 221.011719 54.394531 226.472656 49.597656 C 228.691406 47.636719 225.617188 44.203125 223.429688 46.160156 C 217.714844 51.328125 212.992188 57.6875 210.152344 64.875 C 209.46875 66.664062 212.226562 68.027344 213.191406 66.351562 Z M 213.191406 66.351562 " fill-opacity="1" fill-rule="nonzero"/><path fill="#000000" d="M 256.984375 89.4375 C 252.800781 89.292969 248.539062 90.769531 244.671875 92.191406 C 240.660156 93.667969 236.992188 95.683594 233.582031 98.210938 C 232.074219 99.316406 233.78125 101.730469 235.402344 100.878906 C 238.8125 99.035156 242.394531 97.386719 246.09375 96.136719 C 249.789062 94.886719 253.628906 94.492188 257.324219 93.355469 C 259.371094 92.730469 259.34375 89.519531 256.984375 89.4375 Z M 256.984375 89.4375 " fill-opacity="1" fill-rule="nonzero"/><path fill="#000000" d="M 143.726562 129.816406 C 138.777344 134.785156 134.316406 140.179688 130.417969 145.972656 C 128.742188 148.441406 132.75 151.054688 134.285156 148.527344 C 137.699219 142.792969 141.59375 137.367188 146 132.371094 C 147.421875 130.78125 145.320312 128.222656 143.726562 129.816406 Z M 143.726562 129.816406 " fill-opacity="1" fill-rule="nonzero"/><path fill="#000000" d="M 245.183594 143.984375 C 242.167969 141.628906 238.726562 139.726562 235.484375 137.679688 C 232.273438 135.636719 229.03125 133.308594 225.589844 131.632812 C 224.195312 130.949219 222.148438 132.683594 223.601562 133.933594 C 226.5 136.460938 229.855469 138.53125 233.011719 140.71875 C 236.253906 142.960938 239.464844 145.488281 242.90625 147.421875 C 245.238281 148.699219 247.285156 145.601562 245.183594 143.984375 Z M 245.183594 143.984375 " fill-opacity="1" fill-rule="nonzero"/></svg>